<svg width="280" height="312" viewBox="0 0 280 312" fill="none" xmlns="http://www.w3.org/2000/svg">
<rect x="48" y="194" width="117" height="46" fill="white" stroke="#008000" stroke-width="4"/>
<path d="M61.4865 216.962V219.766H54.4169V216.962H61.4865ZM69.8779 226.209C68.7643 226.209 67.7749 226.007 66.9099 225.605C66.0448 225.202 65.3612 224.648 64.8591 223.942C64.3619 223.236 64.1034 222.425 64.0835 221.511H67.6631C67.6929 222.072 67.9216 222.525 68.3492 222.868C68.7767 223.206 69.2863 223.375 69.8779 223.375C70.3403 223.375 70.7504 223.273 71.1084 223.069C71.4664 222.865 71.7472 222.58 71.9511 222.212C72.1549 221.839 72.2544 221.411 72.2494 220.929C72.2544 220.437 72.1524 220.007 71.9436 219.639C71.7398 219.271 71.4564 218.985 71.0935 218.781C70.7355 218.572 70.3229 218.468 69.8556 218.468C69.4131 218.463 68.993 218.56 68.5953 218.759C68.2025 218.958 67.9042 219.229 67.7004 219.572L64.4415 218.96L65.1052 210.727H74.9042V213.703H68.1404L67.7899 217.305H67.8794C68.1329 216.882 68.5406 216.534 69.1024 216.261C69.6691 215.982 70.3129 215.843 71.0338 215.843C71.9486 215.843 72.7639 216.057 73.4798 216.484C74.2007 216.907 74.7675 217.494 75.1801 218.244C75.5977 218.995 75.8066 219.855 75.8066 220.825C75.8066 221.874 75.558 222.803 75.0608 223.614C74.5686 224.424 73.8776 225.06 72.9877 225.523C72.1027 225.98 71.0661 226.209 69.8779 226.209ZM84.1495 226.373C82.8171 226.373 81.6687 226.057 80.7042 225.426C79.7397 224.789 78.9964 223.877 78.4744 222.689C77.9524 221.496 77.6939 220.061 77.6989 218.386C77.7038 216.711 77.9648 215.289 78.4819 214.12C79.0039 212.947 79.7447 212.055 80.7042 211.443C81.6687 210.827 82.8171 210.518 84.1495 210.518C85.4819 210.518 86.6303 210.827 87.5948 211.443C88.5643 212.055 89.31 212.947 89.832 214.12C90.354 215.294 90.6126 216.716 90.6076 218.386C90.6076 220.066 90.3466 221.503 89.8246 222.696C89.3026 223.89 88.5593 224.802 87.5948 225.433C86.6353 226.06 85.4869 226.373 84.1495 226.373ZM84.1495 223.353C84.945 223.353 85.5888 222.947 86.081 222.137C86.5732 221.322 86.8168 220.071 86.8118 218.386C86.8118 217.282 86.6999 216.373 86.4762 215.657C86.2525 214.936 85.9418 214.399 85.544 214.046C85.1463 213.693 84.6815 213.516 84.1495 213.516C83.359 213.516 82.7202 213.917 82.233 214.717C81.7457 215.512 81.4996 216.735 81.4947 218.386C81.4897 219.505 81.5966 220.432 81.8153 221.168C82.0391 221.903 82.3523 222.453 82.755 222.816C83.1577 223.174 83.6225 223.353 84.1495 223.353ZM101.275 223.136V222.331C101.275 221.705 101.41 221.125 101.678 220.593C101.952 220.061 102.347 219.634 102.864 219.311C103.381 218.988 104.012 218.826 104.758 218.826C105.519 218.826 106.157 218.988 106.675 219.311C107.197 219.629 107.589 220.054 107.853 220.586C108.121 221.113 108.256 221.695 108.256 222.331V223.136C108.256 223.763 108.121 224.342 107.853 224.874C107.584 225.406 107.189 225.833 106.667 226.157C106.145 226.48 105.509 226.641 104.758 226.641C104.002 226.641 103.366 226.48 102.849 226.157C102.332 225.833 101.939 225.406 101.671 224.874C101.407 224.342 101.275 223.763 101.275 223.136ZM103.654 222.331V223.136C103.654 223.455 103.731 223.76 103.885 224.054C104.045 224.347 104.335 224.494 104.758 224.494C105.191 224.494 105.481 224.352 105.631 224.069C105.78 223.78 105.854 223.469 105.854 223.136V222.331C105.854 221.998 105.782 221.685 105.638 221.391C105.499 221.093 105.205 220.944 104.758 220.944C104.34 220.944 104.052 221.093 103.893 221.391C103.734 221.685 103.654 221.998 103.654 222.331ZM93.3556 214.396V213.591C93.3556 212.955 93.4924 212.373 93.7658 211.846C94.0442 211.314 94.4419 210.889 94.959 210.571C95.476 210.248 96.1025 210.086 96.8382 210.086C97.5989 210.086 98.2377 210.248 98.7548 210.571C99.2768 210.889 99.6721 211.314 99.9405 211.846C100.209 212.373 100.343 212.955 100.343 213.591V214.396C100.343 215.033 100.206 215.614 99.9331 216.141C99.6646 216.668 99.2694 217.088 98.7473 217.402C98.2253 217.715 97.589 217.871 96.8382 217.871C96.0875 217.871 95.4512 217.712 94.9292 217.394C94.4121 217.076 94.0194 216.653 93.7509 216.126C93.4874 215.599 93.3556 215.023 93.3556 214.396ZM95.7569 213.591V214.396C95.7569 214.729 95.834 215.04 95.9881 215.328C96.1472 215.612 96.4306 215.754 96.8382 215.754C97.2757 215.754 97.5666 215.612 97.7108 215.328C97.8599 215.04 97.9345 214.729 97.9345 214.396V213.591C97.9345 213.258 97.8649 212.945 97.7257 212.651C97.5865 212.353 97.2907 212.204 96.8382 212.204C96.4206 212.204 96.1348 212.355 95.9806 212.659C95.8315 212.962 95.7569 213.273 95.7569 213.591ZM94.4817 226L104.982 210.727H107.018L96.5176 226H94.4817ZM122.149 214.545V217.23H114.781V214.545H122.149ZM116.317 226V213.964C116.317 213.079 116.483 212.346 116.817 211.764C117.15 211.177 117.612 210.74 118.204 210.451C118.795 210.158 119.479 210.011 120.254 210.011C120.762 210.011 121.239 210.051 121.686 210.131C122.139 210.205 122.474 210.272 122.693 210.332L122.111 213.002C121.977 212.957 121.813 212.92 121.619 212.89C121.43 212.86 121.251 212.845 121.082 212.845C120.655 212.845 120.361 212.94 120.202 213.129C120.043 213.317 119.964 213.576 119.964 213.904V226H116.317ZM123.903 226V214.545H127.445V216.634H127.565C127.773 215.878 128.114 215.316 128.586 214.948C129.059 214.575 129.608 214.389 130.234 214.389C130.403 214.389 130.577 214.401 130.756 214.426C130.935 214.446 131.102 214.478 131.256 214.523V217.692C131.082 217.633 130.853 217.586 130.57 217.551C130.291 217.516 130.043 217.499 129.824 217.499C129.392 217.499 129.001 217.596 128.653 217.789C128.31 217.978 128.039 218.244 127.84 218.587C127.647 218.925 127.55 219.323 127.55 219.781V226H123.903ZM137.502 226.216C136.303 226.216 135.269 225.98 134.399 225.508C133.534 225.031 132.868 224.352 132.401 223.472C131.938 222.587 131.707 221.536 131.707 220.317C131.707 219.134 131.941 218.1 132.408 217.215C132.875 216.325 133.534 215.634 134.384 215.142C135.234 214.645 136.236 214.396 137.39 214.396C138.205 214.396 138.951 214.523 139.627 214.777C140.303 215.03 140.887 215.406 141.379 215.903C141.872 216.4 142.254 217.014 142.528 217.745C142.801 218.471 142.938 219.303 142.938 220.243V221.153H132.982V219.035H139.545C139.54 218.647 139.448 218.301 139.269 217.998C139.09 217.695 138.844 217.459 138.531 217.29C138.222 217.116 137.867 217.029 137.464 217.029C137.057 217.029 136.691 217.121 136.368 217.305C136.045 217.484 135.789 217.73 135.6 218.043C135.411 218.351 135.312 218.702 135.302 219.094V221.25C135.302 221.717 135.394 222.127 135.578 222.48C135.761 222.828 136.022 223.099 136.361 223.293C136.699 223.487 137.101 223.584 137.569 223.584C137.892 223.584 138.185 223.539 138.449 223.45C138.712 223.36 138.938 223.228 139.127 223.054C139.316 222.88 139.458 222.667 139.552 222.413L142.901 222.51C142.761 223.261 142.456 223.914 141.983 224.471C141.516 225.023 140.902 225.453 140.141 225.761C139.381 226.065 138.501 226.216 137.502 226.216ZM150.155 226.216C148.957 226.216 147.923 225.98 147.053 225.508C146.188 225.031 145.521 224.352 145.054 223.472C144.592 222.587 144.36 221.536 144.36 220.317C144.36 219.134 144.594 218.1 145.061 217.215C145.529 216.325 146.188 215.634 147.038 215.142C147.888 214.645 148.89 214.396 150.043 214.396C150.858 214.396 151.604 214.523 152.28 214.777C152.956 215.03 153.54 215.406 154.033 215.903C154.525 216.4 154.908 217.014 155.181 217.745C155.455 218.471 155.591 219.303 155.591 220.243V221.153H145.636V219.035H152.198C152.193 218.647 152.101 218.301 151.922 217.998C151.743 217.695 151.497 217.459 151.184 217.29C150.876 217.116 150.52 217.029 150.118 217.029C149.71 217.029 149.344 217.121 149.021 217.305C148.698 217.484 148.442 217.73 148.253 218.043C148.064 218.351 147.965 218.702 147.955 219.094V221.25C147.955 221.717 148.047 222.127 148.231 222.48C148.415 222.828 148.676 223.099 149.014 223.293C149.352 223.487 149.755 223.584 150.222 223.584C150.545 223.584 150.838 223.539 151.102 223.45C151.365 223.36 151.592 223.228 151.781 223.054C151.969 222.88 152.111 222.667 152.206 222.413L155.554 222.51C155.415 223.261 155.109 223.914 154.637 224.471C154.169 225.023 153.555 225.453 152.795 225.761C152.034 226.065 151.154 226.216 150.155 226.216Z" fill="#008000"/>
<path d="M177.879 215.872C176.707 217.043 176.707 218.943 177.878 220.114L196.968 239.208C198.139 240.38 200.039 240.38 201.211 239.209C202.382 238.037 202.383 236.138 201.211 234.966L184.243 217.994L201.215 201.025C202.387 199.854 202.387 197.954 201.216 196.783C200.044 195.611 198.145 195.611 196.973 196.782L177.879 215.872ZM237 215L180 214.993L180 220.993L237 221L237 215Z" fill="#008000"/>
<path d="M49.6989 34.4545H54.1136L64.4943 59.8097H64.8523L75.233 34.4545H79.6477V65H76.1875V41.7926H75.8892L66.3438 65H63.0028L53.4574 41.7926H53.1591V65H49.6989V34.4545ZM87.0641 65V34.4545H105.499V37.7358H90.763V48.0568H104.544V51.3381H90.763V61.7188H105.737V65H87.0641ZM136.387 34.4545V65H132.808L116.163 41.017H115.865V65H112.166V34.4545H115.745L132.45 58.4972H132.748V34.4545H136.387ZM163.834 34.4545H167.533V54.679C167.533 56.767 167.041 58.6314 166.056 60.272C165.082 61.9027 163.705 63.1903 161.925 64.1349C160.145 65.0696 158.057 65.5369 155.661 65.5369C153.265 65.5369 151.176 65.0696 149.397 64.1349C147.617 63.1903 146.235 61.9027 145.25 60.272C144.276 58.6314 143.789 56.767 143.789 54.679V34.4545H147.488V54.3807C147.488 55.8722 147.816 57.1996 148.472 58.3629C149.128 59.5163 150.063 60.4261 151.276 61.0923C152.499 61.7486 153.961 62.0767 155.661 62.0767C157.361 62.0767 158.823 61.7486 160.046 61.0923C161.269 60.4261 162.203 59.5163 162.85 58.3629C163.506 57.1996 163.834 55.8722 163.834 54.3807V34.4545Z" fill="black"/>
<rect x="50" y="91" width="35" height="32" fill="#FACE79"/>
<rect x="50" y="146" width="35" height="32" fill="#FACE79"/>
<rect x="50" y="253" width="35" height="32" fill="#FACE79"/>
<path d="M95.5593 100.133C97.2261 94.0208 100.926 101.719 103.473 100.407C104.178 100.044 104.24 99.4211 104.737 98.9236C105.405 98.256 106.796 99.5624 107.485 99.693C110.347 100.236 113.249 95.2202 116.223 97.165C117.018 97.6851 117.603 99.2459 118.037 98.429C120.172 94.4103 123.057 102.424 125.236 101.507C126.321 101.05 128.46 97.1294 129.193 98.7587C130.126 100.832 129.869 100.117 131.281 99.5281C133.002 98.8109 132.291 100.248 134.689 100.737C135.832 100.971 136.751 98.8569 137.107 99.693C138.406 102.75 137.612 101.014 139.195 99.748C140.334 98.8366 140.472 102.431 141.558 99.3633C142.79 95.8855 143.524 99.4346 145.515 100.792C145.837 101.012 146.54 100.861 146.724 100.545C146.795 100.423 147.213 98.8049 147.384 99.0885C148.459 100.881 147.875 99.6004 149.472 100.133" stroke="black" stroke-width="3" stroke-linecap="round"/>
<path d="M95 110.418C96.6669 104.306 100.367 112.005 102.914 110.693C103.618 110.33 103.68 109.707 104.178 109.209C104.845 108.541 106.237 109.848 106.926 109.978C109.788 110.521 112.689 105.506 115.664 107.45C116.459 107.971 117.043 109.531 117.477 108.714C119.612 104.696 122.498 112.709 124.677 111.792C125.762 111.335 127.9 107.415 128.634 109.044C129.566 111.117 129.31 110.402 130.722 109.814C132.443 109.096 131.731 110.533 134.129 111.023C135.273 111.256 136.192 109.142 136.547 109.978C137.847 113.036 137.053 111.3 138.636 110.033C139.775 109.122 139.913 112.716 140.999 109.649C142.231 106.171 142.965 109.72 144.956 111.078C145.278 111.297 145.981 111.146 146.165 110.83C146.236 110.709 146.654 109.09 146.824 109.374C147.9 111.166 147.316 109.886 148.913 110.418" stroke="black" stroke-width="3" stroke-linecap="round"/>
<path d="M95 121.418C96.6669 115.306 100.367 123.005 102.914 121.693C103.618 121.33 103.68 120.707 104.178 120.209C104.845 119.541 106.237 120.848 106.926 120.978C109.788 121.521 112.689 116.506 115.664 118.45C116.459 118.971 117.043 120.531 117.477 119.714C119.612 115.696 122.498 123.709 124.677 122.792C125.762 122.335 127.9 118.415 128.634 120.044C129.566 122.117 129.31 121.402 130.722 120.814C132.443 120.096 131.731 121.533 134.129 122.023C135.273 122.256 136.192 120.142 136.547 120.978C137.847 124.036 137.053 122.3 138.636 121.033C139.775 120.122 139.913 123.716 140.999 120.649C142.231 117.171 142.965 120.72 144.956 122.078C145.278 122.297 145.981 122.146 146.165 121.83C146.236 121.709 146.654 120.09 146.824 120.374C147.9 122.166 147.316 120.886 148.913 121.418" stroke="black" stroke-width="3" stroke-linecap="round"/>
<path d="M95.5593 152.418C97.2261 146.306 100.926 154.005 103.473 152.693C104.178 152.33 104.24 151.707 104.737 151.209C105.405 150.541 106.796 151.848 107.485 151.978C110.347 152.521 113.249 147.506 116.223 149.45C117.018 149.971 117.603 151.531 118.037 150.714C120.172 146.696 123.057 154.709 125.236 153.792C126.321 153.335 128.46 149.415 129.193 151.044C130.126 153.117 129.869 152.402 131.281 151.814C133.002 151.096 132.291 152.533 134.689 153.023C135.832 153.256 136.751 151.142 137.107 151.978C138.406 155.036 137.612 153.3 139.195 152.033C140.334 151.122 140.472 154.716 141.558 151.649C142.79 148.171 143.524 151.72 145.515 153.078C145.837 153.297 146.54 153.146 146.724 152.83C146.795 152.709 147.213 151.09 147.384 151.374C148.459 153.166 147.875 151.886 149.472 152.418" stroke="black" stroke-width="3" stroke-linecap="round"/>
<path d="M95 162.704C96.6669 156.592 100.367 164.29 102.914 162.978C103.618 162.615 103.68 161.992 104.178 161.494C104.845 160.827 106.237 162.133 106.926 162.264C109.788 162.807 112.689 157.791 115.664 159.736C116.459 160.256 117.043 161.817 117.477 161C119.612 156.981 122.498 164.995 124.677 164.077C125.762 163.621 127.9 159.7 128.634 161.33C129.566 163.403 129.31 162.687 130.722 162.099C132.443 161.382 131.731 162.819 134.129 163.308C135.273 163.541 136.192 161.428 136.547 162.264C137.847 165.321 137.053 163.585 138.636 162.319C139.775 161.407 139.913 165.002 140.999 161.934C142.231 158.456 142.965 162.005 144.956 163.363C145.278 163.583 145.981 163.432 146.165 163.116C146.236 162.994 146.654 161.376 146.824 161.659C147.9 163.452 147.316 162.171 148.913 162.704" stroke="black" stroke-width="3" stroke-linecap="round"/>
<path d="M95 173.704C96.6669 167.592 100.367 175.29 102.914 173.978C103.618 173.615 103.68 172.992 104.178 172.494C104.845 171.827 106.237 173.133 106.926 173.264C109.788 173.807 112.689 168.791 115.664 170.736C116.459 171.256 117.043 172.817 117.477 172C119.612 167.981 122.498 175.995 124.677 175.077C125.762 174.621 127.9 170.7 128.634 172.33C129.566 174.403 129.31 173.687 130.722 173.099C132.443 172.382 131.731 173.819 134.129 174.308C135.273 174.541 136.192 172.428 136.547 173.264C137.847 176.321 137.053 174.585 138.636 173.319C139.775 172.407 139.913 176.002 140.999 172.934C142.231 169.456 142.965 173.005 144.956 174.363C145.278 174.583 145.981 174.432 146.165 174.116C146.236 173.994 146.654 172.376 146.824 172.659C147.9 174.452 147.316 173.171 148.913 173.704" stroke="black" stroke-width="3" stroke-linecap="round"/>
<path d="M95 259.418C96.6669 253.306 100.367 261.005 102.914 259.693C103.618 259.33 103.68 258.707 104.178 258.209C104.845 257.541 106.237 258.848 106.926 258.978C109.788 259.521 112.689 254.506 115.664 256.45C116.459 256.971 117.043 258.531 117.477 257.714C119.612 253.696 122.498 261.709 124.677 260.792C125.762 260.335 127.9 256.415 128.634 258.044C129.566 260.117 129.31 259.402 130.722 258.814C132.443 258.096 131.731 259.533 134.129 260.023C135.273 260.256 136.192 258.142 136.547 258.978C137.847 262.036 137.053 260.3 138.636 259.033C139.775 258.122 139.913 261.716 140.999 258.649C142.231 255.171 142.965 258.72 144.956 260.078C145.278 260.297 145.981 260.146 146.165 259.83C146.236 259.709 146.654 258.09 146.824 258.374C147.9 260.166 147.316 258.886 148.913 259.418" stroke="black" stroke-width="3" stroke-linecap="round"/>
<path d="M95 270.418C96.6669 264.306 100.367 272.005 102.914 270.693C103.618 270.33 103.68 269.707 104.178 269.209C104.845 268.541 106.237 269.848 106.926 269.978C109.788 270.521 112.689 265.506 115.664 267.45C116.459 267.971 117.043 269.531 117.477 268.714C119.612 264.696 122.498 272.709 124.677 271.792C125.762 271.335 127.9 267.415 128.634 269.044C129.566 271.117 129.31 270.402 130.722 269.814C132.443 269.096 131.731 270.533 134.129 271.023C135.273 271.256 136.192 269.142 136.547 269.978C137.847 273.036 137.053 271.3 138.636 270.033C139.775 269.122 139.913 272.716 140.999 269.649C142.231 266.171 142.965 269.72 144.956 271.078C145.278 271.297 145.981 271.146 146.165 270.83C146.236 270.709 146.654 269.09 146.824 269.374C147.9 271.166 147.316 269.886 148.913 270.418" stroke="black" stroke-width="3" stroke-linecap="round"/>
<path d="M95 280.418C96.6669 274.306 100.367 282.005 102.914 280.693C103.618 280.33 103.68 279.707 104.178 279.209C104.845 278.541 106.237 279.848 106.926 279.978C109.788 280.521 112.689 275.506 115.664 277.45C116.459 277.971 117.043 279.531 117.477 278.714C119.612 274.696 122.498 282.709 124.677 281.792C125.762 281.335 127.9 277.415 128.634 279.044C129.566 281.117 129.31 280.402 130.722 279.814C132.443 279.096 131.731 280.533 134.129 281.023C135.273 281.256 136.192 279.142 136.547 279.978C137.847 283.036 137.053 281.3 138.636 280.033C139.775 279.122 139.913 282.716 140.999 279.649C142.231 276.171 142.965 279.72 144.956 281.078C145.278 281.297 145.981 281.146 146.165 280.83C146.236 280.709 146.654 279.09 146.824 279.374C147.9 281.166 147.316 279.886 148.913 280.418" stroke="black" stroke-width="3" stroke-linecap="round"/>
<rect x="11.5" y="0.5" width="196" height="311" stroke="black"/>
</svg>
