<svg width="233" height="288" viewBox="0 0 233 288" fill="none" xmlns="http://www.w3.org/2000/svg">
<rect x="44.5" y="47.5" width="144" height="192" fill="white" stroke="black"/>
<path d="M57.6989 10.4545H62.1136L72.4943 35.8097H72.8523L83.233 10.4545H87.6477V41H84.1875V17.7926H83.8892L74.3438 41H71.0028L61.4574 17.7926H61.1591V41H57.6989V10.4545ZM95.0641 41V10.4545H113.499V13.7358H98.763V24.0568H112.544V27.3381H98.763V37.7188H113.737V41H95.0641ZM144.387 10.4545V41H140.808L124.163 17.017H123.865V41H120.166V10.4545H123.745L140.45 34.4972H140.748V10.4545H144.387ZM171.834 10.4545H175.533V30.679C175.533 32.767 175.041 34.6314 174.056 36.272C173.082 37.9027 171.705 39.1903 169.925 40.1349C168.145 41.0696 166.057 41.5369 163.661 41.5369C161.265 41.5369 159.176 41.0696 157.397 40.1349C155.617 39.1903 154.235 37.9027 153.25 36.272C152.276 34.6314 151.789 32.767 151.789 30.679V10.4545H155.488V30.3807C155.488 31.8722 155.816 33.1996 156.472 34.3629C157.128 35.5163 158.063 36.4261 159.276 37.0923C160.499 37.7486 161.961 38.0767 163.661 38.0767C165.361 38.0767 166.823 37.7486 168.046 37.0923C169.269 36.4261 170.203 35.5163 170.85 34.3629C171.506 33.1996 171.834 31.8722 171.834 30.3807V10.4545Z" fill="black"/>
<rect x="45" y="251" width="144" height="34" fill="#D9D9D9"/>
<rect x="6" y="47" width="28" height="139" fill="#D9D9D9"/>
<rect x="199" y="47" width="28" height="139" fill="#D9D9D9"/>
<rect x="58" y="67" width="35" height="32" fill="#FACE79"/>
<rect x="58" y="122" width="35" height="32" fill="#FACE79"/>
<rect x="58" y="177" width="35" height="32" fill="#FACE79"/>
<path d="M103.559 76.1327C105.226 70.0208 108.926 77.7194 111.473 76.4074C112.178 76.0445 112.24 75.4211 112.737 74.9236C113.405 74.256 114.796 75.5624 115.485 75.693C118.347 76.2359 121.249 71.2202 124.223 73.165C125.018 73.6851 125.603 75.2459 126.037 74.429C128.172 70.4103 131.057 78.4238 133.236 77.5066C134.321 77.0498 136.46 73.1294 137.193 74.7587C138.126 76.8318 137.869 76.1166 139.281 75.5281C141.002 74.8109 140.291 76.2478 142.689 76.7372C143.832 76.9706 144.751 74.8569 145.107 75.693C146.406 78.7503 145.612 77.0141 147.195 75.748C148.334 74.8366 148.472 78.4307 149.558 75.3633C150.79 71.8855 151.524 75.4346 153.515 76.7921C153.837 77.0119 154.54 76.8606 154.724 76.5448C154.795 76.4231 155.213 74.8049 155.384 75.0885C156.459 76.881 155.875 75.6004 157.472 76.1327" stroke="black" stroke-width="3" stroke-linecap="round"/>
<path d="M103 86.4181C104.667 80.3062 108.367 88.0049 110.914 86.6929C111.618 86.3299 111.68 85.7066 112.178 85.209C112.845 84.5415 114.237 85.8479 114.926 85.9784C117.788 86.5213 120.689 81.5056 123.664 83.4504C124.459 83.9705 125.043 85.5314 125.477 84.7144C127.612 80.6957 130.498 88.7093 132.677 87.792C133.762 87.3352 135.9 83.4148 136.634 85.0442C137.566 87.1172 137.31 86.402 138.722 85.8136C140.443 85.0964 139.731 86.5332 142.129 87.0226C143.273 87.256 144.192 85.1423 144.547 85.9784C145.847 89.0357 145.053 87.2996 146.636 86.0334C147.775 85.122 147.913 88.7161 148.999 85.6487C150.231 82.171 150.965 85.72 152.956 87.0776C153.278 87.2974 153.981 87.1461 154.165 86.8303C154.236 86.7085 154.654 85.0904 154.824 85.3739C155.9 87.1664 155.316 85.8858 156.913 86.4181" stroke="black" stroke-width="3" stroke-linecap="round"/>
<path d="M103 97.4181C104.667 91.3062 108.367 99.0049 110.914 97.6929C111.618 97.3299 111.68 96.7066 112.178 96.209C112.845 95.5415 114.237 96.8479 114.926 96.9784C117.788 97.5213 120.689 92.5056 123.664 94.4504C124.459 94.9705 125.043 96.5314 125.477 95.7144C127.612 91.6957 130.498 99.7093 132.677 98.792C133.762 98.3352 135.9 94.4148 136.634 96.0442C137.566 98.1172 137.31 97.402 138.722 96.8136C140.443 96.0964 139.731 97.5332 142.129 98.0226C143.273 98.256 144.192 96.1423 144.547 96.9784C145.847 100.036 145.053 98.2996 146.636 97.0334C147.775 96.122 147.913 99.7161 148.999 96.6487C150.231 93.171 150.965 96.72 152.956 98.0776C153.278 98.2974 153.981 98.1461 154.165 97.8303C154.236 97.7085 154.654 96.0904 154.824 96.3739C155.9 98.1664 155.316 96.8858 156.913 97.4181" stroke="black" stroke-width="3" stroke-linecap="round"/>
<path d="M103.559 128.418C105.226 122.306 108.926 130.005 111.473 128.693C112.178 128.33 112.24 127.707 112.737 127.209C113.405 126.541 114.796 127.848 115.485 127.978C118.347 128.521 121.249 123.506 124.223 125.45C125.018 125.971 125.603 127.531 126.037 126.714C128.172 122.696 131.057 130.709 133.236 129.792C134.321 129.335 136.46 125.415 137.193 127.044C138.126 129.117 137.869 128.402 139.281 127.814C141.002 127.096 140.291 128.533 142.689 129.023C143.832 129.256 144.751 127.142 145.107 127.978C146.406 131.036 145.612 129.3 147.195 128.033C148.334 127.122 148.472 130.716 149.558 127.649C150.79 124.171 151.524 127.72 153.515 129.078C153.837 129.297 154.54 129.146 154.724 128.83C154.795 128.709 155.213 127.09 155.384 127.374C156.459 129.166 155.875 127.886 157.472 128.418" stroke="black" stroke-width="3" stroke-linecap="round"/>
<path d="M103 138.704C104.667 132.592 108.367 140.29 110.914 138.978C111.618 138.615 111.68 137.992 112.178 137.494C112.845 136.827 114.237 138.133 114.926 138.264C117.788 138.807 120.689 133.791 123.664 135.736C124.459 136.256 125.043 137.817 125.477 137C127.612 132.981 130.498 140.995 132.677 140.077C133.762 139.621 135.9 135.7 136.634 137.33C137.566 139.403 137.31 138.687 138.722 138.099C140.443 137.382 139.731 138.819 142.129 139.308C143.273 139.541 144.192 137.428 144.547 138.264C145.847 141.321 145.053 139.585 146.636 138.319C147.775 137.407 147.913 141.002 148.999 137.934C150.231 134.456 150.965 138.005 152.956 139.363C153.278 139.583 153.981 139.432 154.165 139.116C154.236 138.994 154.654 137.376 154.824 137.659C155.9 139.452 155.316 138.171 156.913 138.704" stroke="black" stroke-width="3" stroke-linecap="round"/>
<path d="M103 149.704C104.667 143.592 108.367 151.29 110.914 149.978C111.618 149.615 111.68 148.992 112.178 148.494C112.845 147.827 114.237 149.133 114.926 149.264C117.788 149.807 120.689 144.791 123.664 146.736C124.459 147.256 125.043 148.817 125.477 148C127.612 143.981 130.498 151.995 132.677 151.077C133.762 150.621 135.9 146.7 136.634 148.33C137.566 150.403 137.31 149.687 138.722 149.099C140.443 148.382 139.731 149.819 142.129 150.308C143.273 150.541 144.192 148.428 144.547 149.264C145.847 152.321 145.053 150.585 146.636 149.319C147.775 148.407 147.913 152.002 148.999 148.934C150.231 145.456 150.965 149.005 152.956 150.363C153.278 150.583 153.981 150.432 154.165 150.116C154.236 149.994 154.654 148.376 154.824 148.659C155.9 150.452 155.316 149.171 156.913 149.704" stroke="black" stroke-width="3" stroke-linecap="round"/>
<path d="M104.559 183.418C106.226 177.306 109.926 185.005 112.473 183.693C113.178 183.33 113.24 182.707 113.737 182.209C114.405 181.541 115.796 182.848 116.485 182.978C119.347 183.521 122.249 178.506 125.223 180.45C126.018 180.971 126.603 182.531 127.037 181.714C129.172 177.696 132.057 185.709 134.236 184.792C135.321 184.335 137.46 180.415 138.193 182.044C139.126 184.117 138.869 183.402 140.281 182.814C142.002 182.096 141.291 183.533 143.689 184.023C144.832 184.256 145.751 182.142 146.107 182.978C147.406 186.036 146.612 184.3 148.195 183.033C149.334 182.122 149.472 185.716 150.558 182.649C151.79 179.171 152.524 182.72 154.515 184.078C154.837 184.297 155.54 184.146 155.724 183.83C155.795 183.709 156.213 182.09 156.384 182.374C157.459 184.166 156.875 182.886 158.472 183.418" stroke="black" stroke-width="3" stroke-linecap="round"/>
<path d="M104 193.704C105.667 187.592 109.367 195.29 111.914 193.978C112.618 193.615 112.68 192.992 113.178 192.495C113.845 191.827 115.237 193.133 115.926 193.264C118.788 193.807 121.689 188.791 124.664 190.736C125.459 191.256 126.043 192.817 126.477 192C128.612 187.981 131.498 195.995 133.677 195.077C134.762 194.621 136.9 190.7 137.634 192.33C138.566 194.403 138.31 193.687 139.722 193.099C141.443 192.382 140.731 193.819 143.129 194.308C144.273 194.541 145.192 192.428 145.547 193.264C146.847 196.321 146.053 194.585 147.636 193.319C148.775 192.407 148.913 196.002 149.999 192.934C151.231 189.456 151.965 193.005 153.956 194.363C154.278 194.583 154.981 194.432 155.165 194.116C155.236 193.994 155.654 192.376 155.824 192.659C156.9 194.452 156.316 193.171 157.913 193.704" stroke="black" stroke-width="3" stroke-linecap="round"/>
<path d="M104 204.704C105.667 198.592 109.367 206.29 111.914 204.978C112.618 204.615 112.68 203.992 113.178 203.495C113.845 202.827 115.237 204.133 115.926 204.264C118.788 204.807 121.689 199.791 124.664 201.736C125.459 202.256 126.043 203.817 126.477 203C128.612 198.981 131.498 206.995 133.677 206.077C134.762 205.621 136.9 201.7 137.634 203.33C138.566 205.403 138.31 204.687 139.722 204.099C141.443 203.382 140.731 204.819 143.129 205.308C144.273 205.541 145.192 203.428 145.547 204.264C146.847 207.321 146.053 205.585 147.636 204.319C148.775 203.407 148.913 207.002 149.999 203.934C151.231 200.456 151.965 204.005 153.956 205.363C154.278 205.583 154.981 205.432 155.165 205.116C155.236 204.994 155.654 203.376 155.824 203.659C156.9 205.452 156.316 204.171 157.913 204.704" stroke="black" stroke-width="3" stroke-linecap="round"/>
<circle cx="20" cy="112" r="18" stroke="#FD0707" stroke-width="3"/>
<rect x="4.90659" y="124.138" width="38" height="3" transform="rotate(-42.1482 4.90659 124.138)" fill="#FD0707"/>
<circle cx="117" cy="268" r="18" stroke="#FD0707" stroke-width="3"/>
<rect x="101.907" y="280.138" width="38" height="3" transform="rotate(-42.1482 101.907 280.138)" fill="#FD0707"/>
<circle cx="213" cy="113" r="18" stroke="#FD0707" stroke-width="3"/>
<rect x="197.907" y="125.138" width="38" height="3" transform="rotate(-42.1482 197.907 125.138)" fill="#FD0707"/>
</svg>
