<svg width="247" height="312" viewBox="0 0 247 312" fill="none" xmlns="http://www.w3.org/2000/svg">
<path d="M59.2784 41H55.5795C55.3608 39.9361 54.978 39.0014 54.4311 38.196C53.8942 37.3906 53.2379 36.7145 52.4624 36.1676C51.6967 35.6108 50.8466 35.1932 49.9119 34.9148C48.9773 34.6364 48.0028 34.4972 46.9886 34.4972C45.1392 34.4972 43.4638 34.9645 41.9624 35.8991C40.4709 36.8338 39.2827 38.2109 38.3977 40.0305C37.5227 41.8501 37.0852 44.0824 37.0852 46.7273C37.0852 49.3722 37.5227 51.6044 38.3977 53.424C39.2827 55.2436 40.4709 56.6207 41.9624 57.5554C43.4638 58.4901 45.1392 58.9574 46.9886 58.9574C48.0028 58.9574 48.9773 58.8182 49.9119 58.5398C50.8466 58.2614 51.6967 57.8487 52.4624 57.3018C53.2379 56.745 53.8942 56.0639 54.4311 55.2585C54.978 54.4432 55.3608 53.5085 55.5795 52.4545H59.2784C59 54.0156 58.4929 55.4126 57.7571 56.6456C57.0213 57.8786 56.1065 58.9276 55.0128 59.7926C53.919 60.6477 52.6911 61.299 51.3288 61.7464C49.9766 62.1939 48.5298 62.4176 46.9886 62.4176C44.3835 62.4176 42.0668 61.7812 40.0384 60.5085C38.0099 59.2358 36.4141 57.4261 35.2507 55.0795C34.0874 52.733 33.5057 49.9489 33.5057 46.7273C33.5057 43.5057 34.0874 40.7216 35.2507 38.375C36.4141 36.0284 38.0099 34.2188 40.0384 32.946C42.0668 31.6733 44.3835 31.0369 46.9886 31.0369C48.5298 31.0369 49.9766 31.2607 51.3288 31.7081C52.6911 32.1555 53.919 32.8118 55.0128 33.6768C56.1065 34.532 57.0213 35.576 57.7571 36.8089C58.4929 38.032 59 39.429 59.2784 41ZM71.5197 62.5369C70.068 62.5369 68.7505 62.2635 67.5673 61.7166C66.3841 61.1598 65.4444 60.3594 64.7484 59.3153C64.0524 58.2614 63.7044 56.9886 63.7044 55.4972C63.7044 54.1847 63.9629 53.1207 64.4799 52.3054C64.997 51.4801 65.688 50.8338 66.5531 50.3665C67.4181 49.8991 68.3727 49.5511 69.4167 49.3224C70.4707 49.0838 71.5297 48.8949 72.5936 48.7557C73.9856 48.5767 75.1142 48.4425 75.9792 48.353C76.8542 48.2536 77.4906 48.0895 77.8883 47.8608C78.296 47.6321 78.4998 47.2344 78.4998 46.6676V46.5483C78.4998 45.0767 78.0971 43.9332 77.2917 43.1179C76.4963 42.3026 75.2882 41.8949 73.6674 41.8949C71.987 41.8949 70.6696 42.2628 69.715 42.9986C68.7605 43.7344 68.0893 44.5199 67.7015 45.3551L64.3606 44.1619C64.9572 42.7699 65.7527 41.6861 66.747 40.9105C67.7512 40.125 68.845 39.5781 70.0282 39.2699C71.2214 38.9517 72.3947 38.7926 73.5481 38.7926C74.2839 38.7926 75.1291 38.8821 76.0836 39.0611C77.0481 39.2301 77.9778 39.5831 78.8727 40.12C79.7775 40.657 80.5282 41.4673 81.1248 42.5511C81.7214 43.6349 82.0197 45.0866 82.0197 46.9062V62H78.4998V58.8977H78.3208C78.0822 59.3949 77.6845 59.9268 77.1277 60.4936C76.5708 61.0604 75.8301 61.5426 74.9054 61.9403C73.9806 62.3381 72.8521 62.5369 71.5197 62.5369ZM72.0566 59.375C73.4487 59.375 74.622 59.1016 75.5765 58.5547C76.541 58.0078 77.2669 57.3018 77.7541 56.4368C78.2512 55.5717 78.4998 54.6619 78.4998 53.7074V50.4858C78.3507 50.6648 78.0226 50.8288 77.5154 50.978C77.0183 51.1172 76.4416 51.2415 75.7853 51.3509C75.139 51.4503 74.5076 51.5398 73.8912 51.6193C73.2846 51.6889 72.7924 51.7486 72.4146 51.7983C71.4998 51.9176 70.6447 52.1115 69.8493 52.38C69.0637 52.6385 68.4274 53.0312 67.9402 53.5582C67.4629 54.0753 67.2243 54.7812 67.2243 55.6761C67.2243 56.8991 67.6767 57.8239 68.5815 58.4503C69.4963 59.0668 70.6547 59.375 72.0566 59.375ZM98.646 39.0909V42.0739H86.2965V39.0909H98.646ZM89.9954 62V35.929C89.9954 34.6165 90.3036 33.5227 90.9201 32.6477C91.5366 31.7727 92.337 31.1165 93.3214 30.679C94.3058 30.2415 95.3448 30.0227 96.4386 30.0227C97.3036 30.0227 98.0096 30.0923 98.5565 30.2315C99.1033 30.3707 99.511 30.5 99.7795 30.6193L98.7653 33.6619C98.5863 33.6023 98.3377 33.5277 98.0195 33.4382C97.7113 33.3487 97.3036 33.304 96.7965 33.304C95.6332 33.304 94.793 33.5973 94.2759 34.1839C93.7688 34.7706 93.5153 35.6307 93.5153 36.7642V62H89.9954ZM113.781 39.0909V42.0739H101.431V39.0909H113.781ZM105.13 62V35.929C105.13 34.6165 105.438 33.5227 106.055 32.6477C106.671 31.7727 107.472 31.1165 108.456 30.679C109.441 30.2415 110.48 30.0227 111.573 30.0227C112.438 30.0227 113.144 30.0923 113.691 30.2315C114.238 30.3707 114.646 30.5 114.914 30.6193L113.9 33.6619C113.721 33.6023 113.472 33.5277 113.154 33.4382C112.846 33.3487 112.438 33.304 111.931 33.304C110.768 33.304 109.928 33.5973 109.411 34.1839C108.904 34.7706 108.65 35.6307 108.65 36.7642V62H105.13ZM127.376 62.4773C125.168 62.4773 123.264 61.9901 121.663 61.0156C120.072 60.0312 118.844 58.6591 117.979 56.8991C117.124 55.1293 116.697 53.071 116.697 50.7244C116.697 48.3778 117.124 46.3097 117.979 44.5199C118.844 42.7202 120.047 41.3182 121.589 40.3139C123.14 39.2997 124.949 38.7926 127.018 38.7926C128.211 38.7926 129.389 38.9915 130.552 39.3892C131.716 39.7869 132.775 40.4332 133.729 41.3281C134.684 42.2131 135.444 43.3864 136.011 44.848C136.578 46.3097 136.861 48.1094 136.861 50.2472V51.7386H119.202V48.696H133.282C133.282 47.4034 133.023 46.25 132.506 45.2358C131.999 44.2216 131.273 43.4212 130.329 42.8345C129.394 42.2479 128.29 41.9545 127.018 41.9545C125.616 41.9545 124.403 42.3026 123.378 42.9986C122.364 43.6847 121.584 44.5795 121.037 45.6832C120.49 46.7869 120.216 47.9702 120.216 49.233V51.2614C120.216 52.9915 120.515 54.4581 121.111 55.6612C121.718 56.8544 122.558 57.7642 123.632 58.3906C124.706 59.0071 125.954 59.3153 127.376 59.3153C128.3 59.3153 129.135 59.1861 129.881 58.9276C130.637 58.6591 131.288 58.2614 131.835 57.7344C132.382 57.1974 132.805 56.5312 133.103 55.7358L136.503 56.6903C136.145 57.8438 135.544 58.858 134.699 59.733C133.854 60.598 132.809 61.2741 131.567 61.7614C130.324 62.2386 128.927 62.4773 127.376 62.4773ZM158.443 44.2216L155.281 45.1165C155.082 44.5895 154.789 44.0774 154.401 43.5803C154.023 43.0732 153.506 42.6555 152.85 42.3274C152.194 41.9993 151.354 41.8352 150.329 41.8352C148.927 41.8352 147.759 42.1584 146.824 42.8047C145.9 43.4411 145.437 44.2514 145.437 45.2358C145.437 46.1108 145.756 46.8018 146.392 47.3089C147.028 47.8161 148.023 48.2386 149.375 48.5767L152.775 49.4119C154.824 49.9091 156.35 50.6697 157.354 51.6939C158.358 52.7081 158.861 54.0156 158.861 55.6165C158.861 56.929 158.483 58.1023 157.727 59.1364C156.981 60.1705 155.937 60.9858 154.595 61.5824C153.253 62.179 151.692 62.4773 149.912 62.4773C147.575 62.4773 145.641 61.9702 144.11 60.956C142.579 59.9418 141.609 58.4602 141.202 56.5114L144.542 55.6761C144.861 56.9091 145.462 57.8338 146.347 58.4503C147.242 59.0668 148.41 59.375 149.852 59.375C151.493 59.375 152.795 59.027 153.76 58.331C154.734 57.625 155.221 56.7798 155.221 55.7955C155.221 55 154.943 54.3338 154.386 53.7969C153.829 53.25 152.974 52.8423 151.821 52.5739L148.003 51.679C145.905 51.1818 144.363 50.4112 143.379 49.3672C142.405 48.3132 141.917 46.9957 141.917 45.4148C141.917 44.1222 142.28 42.9787 143.006 41.9844C143.742 40.9901 144.741 40.2095 146.004 39.6428C147.277 39.076 148.719 38.7926 150.329 38.7926C152.596 38.7926 154.376 39.2898 155.669 40.2841C156.971 41.2784 157.896 42.5909 158.443 44.2216Z" fill="black"/>
<rect x="74.5" y="87.5" width="34" height="31" fill="#FACE79" stroke="#008000"/>
<rect x="39" y="146" width="35" height="32" fill="#FACE79"/>
<rect x="39" y="253" width="35" height="32" fill="#FACE79"/>
<path d="M119.559 96.1327C121.226 90.0208 124.926 97.7194 127.473 96.4074C128.178 96.0445 128.24 95.4211 128.737 94.9236C129.405 94.256 130.796 95.5624 131.485 95.693C134.347 96.2359 137.249 91.2202 140.223 93.165C141.018 93.6851 141.603 95.2459 142.037 94.429C144.172 90.4103 147.057 98.4238 149.236 97.5066C150.321 97.0498 152.46 93.1294 153.193 94.7587C154.126 96.8318 153.869 96.1166 155.281 95.5281C157.002 94.8109 156.291 96.2478 158.689 96.7372C159.832 96.9706 160.751 94.8569 161.107 95.693C162.406 98.7503 161.612 97.0141 163.195 95.748C164.334 94.8366 164.472 98.4307 165.558 95.3633C166.79 91.8855 167.524 95.4346 169.515 96.7921C169.837 97.0119 170.54 96.8606 170.724 96.5448C170.795 96.4231 171.213 94.8049 171.384 95.0885C172.459 96.881 171.875 95.6004 173.472 96.1327" stroke="#008000" stroke-width="3" stroke-linecap="round"/>
<path d="M119 106.418C120.667 100.306 124.367 108.005 126.914 106.693C127.618 106.33 127.68 105.707 128.178 105.209C128.845 104.541 130.237 105.848 130.926 105.978C133.788 106.521 136.689 101.506 139.664 103.45C140.459 103.971 141.043 105.531 141.477 104.714C143.612 100.696 146.498 108.709 148.677 107.792C149.762 107.335 151.9 103.415 152.634 105.044C153.566 107.117 153.31 106.402 154.722 105.814C156.443 105.096 155.731 106.533 158.129 107.023C159.273 107.256 160.192 105.142 160.547 105.978C161.847 109.036 161.053 107.3 162.636 106.033C163.775 105.122 163.913 108.716 164.999 105.649C166.231 102.171 166.965 105.72 168.956 107.078C169.278 107.297 169.981 107.146 170.165 106.83C170.236 106.709 170.654 105.09 170.824 105.374C171.9 107.166 171.316 105.886 172.913 106.418" stroke="#008000" stroke-width="3" stroke-linecap="round"/>
<path d="M119 117.418C120.667 111.306 124.367 119.005 126.914 117.693C127.618 117.33 127.68 116.707 128.178 116.209C128.845 115.541 130.237 116.848 130.926 116.978C133.788 117.521 136.689 112.506 139.664 114.45C140.459 114.971 141.043 116.531 141.477 115.714C143.612 111.696 146.498 119.709 148.677 118.792C149.762 118.335 151.9 114.415 152.634 116.044C153.566 118.117 153.31 117.402 154.722 116.814C156.443 116.096 155.731 117.533 158.129 118.023C159.273 118.256 160.192 116.142 160.547 116.978C161.847 120.036 161.053 118.3 162.636 117.033C163.775 116.122 163.913 119.716 164.999 116.649C166.231 113.171 166.965 116.72 168.956 118.078C169.278 118.297 169.981 118.146 170.165 117.83C170.236 117.709 170.654 116.09 170.824 116.374C171.9 118.166 171.316 116.886 172.913 117.418" stroke="#008000" stroke-width="3" stroke-linecap="round"/>
<path d="M23.6562 97.7251V94.7273H36.565V97.7251H31.9339V110H28.2947V97.7251H23.6562ZM52.0857 102.364C52.0857 104.044 51.7625 105.468 51.1162 106.637C50.4699 107.805 49.5949 108.692 48.4912 109.299C47.3925 109.906 46.1595 110.209 44.7923 110.209C43.4202 110.209 42.1847 109.903 41.086 109.292C39.9873 108.68 39.1148 107.793 38.4685 106.629C37.8271 105.461 37.5065 104.039 37.5065 102.364C37.5065 100.683 37.8271 99.2589 38.4685 98.0906C39.1148 96.9222 39.9873 96.0348 41.086 95.4283C42.1847 94.8217 43.4202 94.5185 44.7923 94.5185C46.1595 94.5185 47.3925 94.8217 48.4912 95.4283C49.5949 96.0348 50.4699 96.9222 51.1162 98.0906C51.7625 99.2589 52.0857 100.683 52.0857 102.364ZM48.3122 102.364C48.3122 101.369 48.1705 100.529 47.8872 99.843C47.6088 99.157 47.2061 98.6374 46.6791 98.2844C46.157 97.9315 45.5281 97.755 44.7923 97.755C44.0615 97.755 43.4326 97.9315 42.9056 98.2844C42.3786 98.6374 41.9735 99.157 41.6901 99.843C41.4117 100.529 41.2725 101.369 41.2725 102.364C41.2725 103.358 41.4117 104.198 41.6901 104.884C41.9735 105.57 42.3786 106.09 42.9056 106.443C43.4326 106.796 44.0615 106.972 44.7923 106.972C45.5281 106.972 46.157 106.796 46.6791 106.443C47.2061 106.09 47.6088 105.57 47.8872 104.884C48.1705 104.198 48.3122 103.358 48.3122 102.364ZM54.2409 110V94.7273H60.5498C61.6933 94.7273 62.6801 94.951 63.5104 95.3984C64.3456 95.8409 64.9894 96.4599 65.4419 97.2553C65.8943 98.0458 66.1205 98.9656 66.1205 100.015C66.1205 101.069 65.8893 101.991 65.4269 102.781C64.9695 103.567 64.3158 104.176 63.4656 104.608C62.6155 105.041 61.6063 105.257 60.4379 105.257H56.5452V102.349H59.7519C60.3087 102.349 60.7735 102.252 61.1464 102.058C61.5242 101.864 61.8101 101.593 62.004 101.245C62.1979 100.892 62.2948 100.482 62.2948 100.015C62.2948 99.5423 62.1979 99.1346 62.004 98.7915C61.8101 98.4435 61.5242 98.1751 61.1464 97.9862C60.7686 97.7972 60.3037 97.7028 59.7519 97.7028H57.9323V110H54.2409Z" fill="#008000"/>
<path d="M84.5593 152.418C86.2261 146.306 89.9263 154.005 92.4731 152.693C93.1776 152.33 93.2395 151.707 93.7371 151.209C94.4046 150.541 95.7965 151.848 96.4849 151.978C99.3473 152.521 102.249 147.506 105.223 149.45C106.018 149.971 106.603 151.531 107.037 150.714C109.172 146.696 112.057 154.709 114.236 153.792C115.321 153.335 117.46 149.415 118.193 151.044C119.126 153.117 118.869 152.402 120.281 151.814C122.002 151.096 121.291 152.533 123.689 153.023C124.832 153.256 125.751 151.142 126.107 151.978C127.406 155.036 126.612 153.3 128.195 152.033C129.334 151.122 129.472 154.716 130.558 151.649C131.79 148.171 132.524 151.72 134.515 153.078C134.837 153.297 135.54 153.146 135.724 152.83C135.795 152.709 136.213 151.09 136.384 151.374C137.459 153.166 136.875 151.886 138.472 152.418" stroke="black" stroke-width="3" stroke-linecap="round"/>
<path d="M84 162.704C85.6669 156.592 89.367 164.29 91.9138 162.978C92.6184 162.615 92.6803 161.992 93.1778 161.494C93.8454 160.827 95.2372 162.133 95.9256 162.264C98.788 162.807 101.689 157.791 104.664 159.736C105.459 160.256 106.043 161.817 106.477 161C108.612 156.981 111.498 164.995 113.677 164.077C114.762 163.621 116.9 159.7 117.634 161.33C118.566 163.403 118.31 162.687 119.722 162.099C121.443 161.382 120.731 162.819 123.129 163.308C124.273 163.541 125.192 161.428 125.547 162.264C126.847 165.321 126.053 163.585 127.636 162.319C128.775 161.407 128.913 165.002 129.999 161.934C131.231 158.456 131.965 162.005 133.956 163.363C134.278 163.583 134.981 163.432 135.165 163.116C135.236 162.994 135.654 161.376 135.824 161.659C136.9 163.452 136.316 162.171 137.913 162.704" stroke="black" stroke-width="3" stroke-linecap="round"/>
<path d="M84 173.704C85.6669 167.592 89.367 175.29 91.9138 173.978C92.6184 173.615 92.6803 172.992 93.1778 172.494C93.8454 171.827 95.2372 173.133 95.9256 173.264C98.788 173.807 101.689 168.791 104.664 170.736C105.459 171.256 106.043 172.817 106.477 172C108.612 167.981 111.498 175.995 113.677 175.077C114.762 174.621 116.9 170.7 117.634 172.33C118.566 174.403 118.31 173.687 119.722 173.099C121.443 172.382 120.731 173.819 123.129 174.308C124.273 174.541 125.192 172.428 125.547 173.264C126.847 176.321 126.053 174.585 127.636 173.319C128.775 172.407 128.913 176.002 129.999 172.934C131.231 169.456 131.965 173.005 133.956 174.363C134.278 174.583 134.981 174.432 135.165 174.116C135.236 173.994 135.654 172.376 135.824 172.659C136.9 174.452 136.316 173.171 137.913 173.704" stroke="black" stroke-width="3" stroke-linecap="round"/>
<rect x="39" y="201" width="35" height="32" fill="#FACE79"/>
<path d="M84.5593 207.418C86.2261 201.306 89.9263 209.005 92.4731 207.693C93.1776 207.33 93.2395 206.707 93.7371 206.209C94.4046 205.541 95.7965 206.848 96.4849 206.978C99.3473 207.521 102.249 202.506 105.223 204.45C106.018 204.971 106.603 206.531 107.037 205.714C109.172 201.696 112.057 209.709 114.236 208.792C115.321 208.335 117.46 204.415 118.193 206.044C119.126 208.117 118.869 207.402 120.281 206.814C122.002 206.096 121.291 207.533 123.689 208.023C124.832 208.256 125.751 206.142 126.107 206.978C127.406 210.036 126.612 208.3 128.195 207.033C129.334 206.122 129.472 209.716 130.558 206.649C131.79 203.171 132.524 206.72 134.515 208.078C134.837 208.297 135.54 208.146 135.724 207.83C135.795 207.709 136.213 206.09 136.384 206.374C137.459 208.166 136.875 206.886 138.472 207.418" stroke="black" stroke-width="3" stroke-linecap="round"/>
<path d="M84 217.704C85.6669 211.592 89.367 219.29 91.9138 217.978C92.6184 217.615 92.6803 216.992 93.1778 216.495C93.8454 215.827 95.2372 217.133 95.9256 217.264C98.788 217.807 101.689 212.791 104.664 214.736C105.459 215.256 106.043 216.817 106.477 216C108.612 211.981 111.498 219.995 113.677 219.077C114.762 218.621 116.9 214.7 117.634 216.33C118.566 218.403 118.31 217.687 119.722 217.099C121.443 216.382 120.731 217.819 123.129 218.308C124.273 218.541 125.192 216.428 125.547 217.264C126.847 220.321 126.053 218.585 127.636 217.319C128.775 216.407 128.913 220.002 129.999 216.934C131.231 213.456 131.965 217.005 133.956 218.363C134.278 218.583 134.981 218.432 135.165 218.116C135.236 217.994 135.654 216.376 135.824 216.659C136.9 218.452 136.316 217.171 137.913 217.704" stroke="black" stroke-width="3" stroke-linecap="round"/>
<path d="M84 228.704C85.6669 222.592 89.367 230.29 91.9138 228.978C92.6184 228.615 92.6803 227.992 93.1778 227.495C93.8454 226.827 95.2372 228.133 95.9256 228.264C98.788 228.807 101.689 223.791 104.664 225.736C105.459 226.256 106.043 227.817 106.477 227C108.612 222.981 111.498 230.995 113.677 230.077C114.762 229.621 116.9 225.7 117.634 227.33C118.566 229.403 118.31 228.687 119.722 228.099C121.443 227.382 120.731 228.819 123.129 229.308C124.273 229.541 125.192 227.428 125.547 228.264C126.847 231.321 126.053 229.585 127.636 228.319C128.775 227.407 128.913 231.002 129.999 227.934C131.231 224.456 131.965 228.005 133.956 229.363C134.278 229.583 134.981 229.432 135.165 229.116C135.236 228.994 135.654 227.376 135.824 227.659C136.9 229.452 136.316 228.171 137.913 228.704" stroke="black" stroke-width="3" stroke-linecap="round"/>
<path d="M84 259.418C85.6669 253.306 89.367 261.005 91.9138 259.693C92.6184 259.33 92.6803 258.707 93.1778 258.209C93.8454 257.541 95.2372 258.848 95.9256 258.978C98.788 259.521 101.689 254.506 104.664 256.45C105.459 256.971 106.043 258.531 106.477 257.714C108.612 253.696 111.498 261.709 113.677 260.792C114.762 260.335 116.9 256.415 117.634 258.044C118.566 260.117 118.31 259.402 119.722 258.814C121.443 258.096 120.731 259.533 123.129 260.023C124.273 260.256 125.192 258.142 125.547 258.978C126.847 262.036 126.053 260.3 127.636 259.033C128.775 258.122 128.913 261.716 129.999 258.649C131.231 255.171 131.965 258.72 133.956 260.078C134.278 260.297 134.981 260.146 135.165 259.83C135.236 259.709 135.654 258.09 135.824 258.374C136.9 260.166 136.316 258.886 137.913 259.418" stroke="black" stroke-width="3" stroke-linecap="round"/>
<path d="M84 270.418C85.6669 264.306 89.367 272.005 91.9138 270.693C92.6184 270.33 92.6803 269.707 93.1778 269.209C93.8454 268.541 95.2372 269.848 95.9256 269.978C98.788 270.521 101.689 265.506 104.664 267.45C105.459 267.971 106.043 269.531 106.477 268.714C108.612 264.696 111.498 272.709 113.677 271.792C114.762 271.335 116.9 267.415 117.634 269.044C118.566 271.117 118.31 270.402 119.722 269.814C121.443 269.096 120.731 270.533 123.129 271.023C124.273 271.256 125.192 269.142 125.547 269.978C126.847 273.036 126.053 271.3 127.636 270.033C128.775 269.122 128.913 272.716 129.999 269.649C131.231 266.171 131.965 269.72 133.956 271.078C134.278 271.297 134.981 271.146 135.165 270.83C135.236 270.709 135.654 269.09 135.824 269.374C136.9 271.166 136.316 269.886 137.913 270.418" stroke="black" stroke-width="3" stroke-linecap="round"/>
<path d="M84 280.418C85.6669 274.306 89.367 282.005 91.9138 280.693C92.6184 280.33 92.6803 279.707 93.1778 279.209C93.8454 278.541 95.2372 279.848 95.9256 279.978C98.788 280.521 101.689 275.506 104.664 277.45C105.459 277.971 106.043 279.531 106.477 278.714C108.612 274.696 111.498 282.709 113.677 281.792C114.762 281.335 116.9 277.415 117.634 279.044C118.566 281.117 118.31 280.402 119.722 279.814C121.443 279.096 120.731 280.533 123.129 281.023C124.273 281.256 125.192 279.142 125.547 279.978C126.847 283.036 126.053 281.3 127.636 280.033C128.775 279.122 128.913 282.716 129.999 279.649C131.231 276.171 131.965 279.72 133.956 281.078C134.278 281.297 134.981 281.146 135.165 280.83C135.236 280.709 135.654 279.09 135.824 279.374C136.9 281.166 136.316 279.886 137.913 280.418" stroke="black" stroke-width="3" stroke-linecap="round"/>
<rect x="0.5" y="0.5" width="196" height="311" stroke="black"/>
<path d="M226.121 92.8787C224.95 91.7071 223.05 91.7071 221.879 92.8787L202.787 111.971C201.615 113.142 201.615 115.042 202.787 116.213C203.958 117.385 205.858 117.385 207.029 116.213L224 99.2426L240.971 116.213C242.142 117.385 244.042 117.385 245.213 116.213C246.385 115.042 246.385 113.142 245.213 111.971L226.121 92.8787ZM227 154L227 95L221 95L221 154L227 154Z" fill="#008000"/>
</svg>
