<svg width="247" height="312" viewBox="0 0 247 312" fill="none" xmlns="http://www.w3.org/2000/svg">
<path d="M34.6989 62V31.4545H45.0199C47.4162 31.4545 49.375 31.8871 50.8963 32.7521C52.4276 33.6072 53.5611 34.7656 54.2969 36.2273C55.0327 37.6889 55.4006 39.3196 55.4006 41.1193C55.4006 42.919 55.0327 44.5547 54.2969 46.0263C53.571 47.4979 52.4474 48.6712 50.9261 49.5462C49.4048 50.4112 47.456 50.8438 45.0795 50.8438H37.6818V47.5625H44.9602C46.6009 47.5625 47.9183 47.2791 48.9126 46.7124C49.907 46.1456 50.6278 45.38 51.0753 44.4155C51.5327 43.4411 51.7614 42.3423 51.7614 41.1193C51.7614 39.8963 51.5327 38.8026 51.0753 37.8381C50.6278 36.8736 49.902 36.1179 48.8977 35.571C47.8935 35.0142 46.5611 34.7358 44.9006 34.7358H38.3977V62H34.6989ZM64.4016 31.4545V62H60.8817V31.4545H64.4016ZM77.59 62.5369C76.1383 62.5369 74.8208 62.2635 73.6376 61.7166C72.4544 61.1598 71.5147 60.3594 70.8187 59.3153C70.1227 58.2614 69.7747 56.9886 69.7747 55.4972C69.7747 54.1847 70.0332 53.1207 70.5502 52.3054C71.0673 51.4801 71.7583 50.8338 72.6234 50.3665C73.4885 49.8991 74.443 49.5511 75.487 49.3224C76.541 49.0838 77.6 48.8949 78.6639 48.7557C80.0559 48.5767 81.1845 48.4425 82.0495 48.353C82.9245 48.2536 83.5609 48.0895 83.9586 47.8608C84.3663 47.6321 84.5701 47.2344 84.5701 46.6676V46.5483C84.5701 45.0767 84.1674 43.9332 83.362 43.1179C82.5666 42.3026 81.3585 41.8949 79.7377 41.8949C78.0574 41.8949 76.7399 42.2628 75.7853 42.9986C74.8308 43.7344 74.1596 44.5199 73.7718 45.3551L70.4309 44.1619C71.0275 42.7699 71.823 41.6861 72.8173 40.9105C73.8216 40.125 74.9153 39.5781 76.0985 39.2699C77.2917 38.9517 78.465 38.7926 79.6184 38.7926C80.3542 38.7926 81.1994 38.8821 82.1539 39.0611C83.1184 39.2301 84.0481 39.5831 84.943 40.12C85.8478 40.657 86.5985 41.4673 87.1951 42.5511C87.7917 43.6349 88.09 45.0866 88.09 46.9062V62H84.5701V58.8977H84.3912C84.1525 59.3949 83.7548 59.9268 83.198 60.4936C82.6412 61.0604 81.9004 61.5426 80.9757 61.9403C80.051 62.3381 78.9224 62.5369 77.59 62.5369ZM78.127 59.375C79.519 59.375 80.6923 59.1016 81.6468 58.5547C82.6113 58.0078 83.3372 57.3018 83.8244 56.4368C84.3216 55.5717 84.5701 54.6619 84.5701 53.7074V50.4858C84.421 50.6648 84.0929 50.8288 83.5858 50.978C83.0886 51.1172 82.5119 51.2415 81.8556 51.3509C81.2093 51.4503 80.5779 51.5398 79.9615 51.6193C79.3549 51.6889 78.8627 51.7486 78.4849 51.7983C77.5701 51.9176 76.715 52.1115 75.9196 52.38C75.1341 52.6385 74.4977 53.0312 74.0105 53.5582C73.5332 54.0753 73.2946 54.7812 73.2946 55.6761C73.2946 56.8991 73.747 57.8239 74.6518 58.4503C75.5666 59.0668 76.725 59.375 78.127 59.375ZM103.821 62.4773C101.674 62.4773 99.8242 61.9702 98.2731 60.956C96.7219 59.9418 95.5288 58.5447 94.6935 56.7649C93.8583 54.9851 93.4407 52.9517 93.4407 50.6648C93.4407 48.3381 93.8683 46.2848 94.7234 44.505C95.5884 42.7152 96.7915 41.3182 98.3327 40.3139C99.8839 39.2997 101.694 38.7926 103.762 38.7926C105.373 38.7926 106.824 39.0909 108.117 39.6875C109.409 40.2841 110.468 41.1193 111.294 42.1932C112.119 43.267 112.631 44.5199 112.83 45.9517H109.31C109.042 44.9077 108.445 43.983 107.52 43.1776C106.605 42.3622 105.373 41.9545 103.821 41.9545C102.449 41.9545 101.246 42.3125 100.212 43.0284C99.1879 43.7344 98.3874 44.7337 97.8107 46.0263C97.244 47.3089 96.9606 48.8153 96.9606 50.5455C96.9606 52.3153 97.239 53.8565 97.7958 55.169C98.3626 56.4815 99.158 57.5007 100.182 58.2266C101.216 58.9524 102.429 59.3153 103.821 59.3153C104.736 59.3153 105.566 59.1562 106.312 58.8381C107.058 58.5199 107.689 58.0625 108.206 57.4659C108.723 56.8693 109.091 56.1534 109.31 55.3182H112.83C112.631 56.6705 112.139 57.8885 111.353 58.9723C110.578 60.0462 109.549 60.9013 108.266 61.5376C106.993 62.1641 105.512 62.4773 103.821 62.4773ZM127.581 62.4773C125.373 62.4773 123.469 61.9901 121.868 61.0156C120.277 60.0312 119.049 58.6591 118.184 56.8991C117.329 55.1293 116.902 53.071 116.902 50.7244C116.902 48.3778 117.329 46.3097 118.184 44.5199C119.049 42.7202 120.252 41.3182 121.794 40.3139C123.345 39.2997 125.154 38.7926 127.223 38.7926C128.416 38.7926 129.594 38.9915 130.757 39.3892C131.921 39.7869 132.98 40.4332 133.934 41.3281C134.889 42.2131 135.65 43.3864 136.216 44.848C136.783 46.3097 137.066 48.1094 137.066 50.2472V51.7386H119.407V48.696H133.487C133.487 47.4034 133.228 46.25 132.711 45.2358C132.204 44.2216 131.478 43.4212 130.534 42.8345C129.599 42.2479 128.495 41.9545 127.223 41.9545C125.821 41.9545 124.608 42.3026 123.583 42.9986C122.569 43.6847 121.789 44.5795 121.242 45.6832C120.695 46.7869 120.422 47.9702 120.422 49.233V51.2614C120.422 52.9915 120.72 54.4581 121.316 55.6612C121.923 56.8544 122.763 57.7642 123.837 58.3906C124.911 59.0071 126.159 59.3153 127.581 59.3153C128.505 59.3153 129.341 59.1861 130.086 58.9276C130.842 58.6591 131.493 58.2614 132.04 57.7344C132.587 57.1974 133.01 56.5312 133.308 55.7358L136.708 56.6903C136.35 57.8438 135.749 58.858 134.904 59.733C134.059 60.598 133.015 61.2741 131.772 61.7614C130.529 62.2386 129.132 62.4773 127.581 62.4773ZM158.648 44.2216L155.486 45.1165C155.287 44.5895 154.994 44.0774 154.606 43.5803C154.228 43.0732 153.711 42.6555 153.055 42.3274C152.399 41.9993 151.559 41.8352 150.534 41.8352C149.132 41.8352 147.964 42.1584 147.029 42.8047C146.105 43.4411 145.642 44.2514 145.642 45.2358C145.642 46.1108 145.961 46.8018 146.597 47.3089C147.233 47.8161 148.228 48.2386 149.58 48.5767L152.98 49.4119C155.029 49.9091 156.555 50.6697 157.559 51.6939C158.564 52.7081 159.066 54.0156 159.066 55.6165C159.066 56.929 158.688 58.1023 157.932 59.1364C157.186 60.1705 156.142 60.9858 154.8 61.5824C153.458 62.179 151.897 62.4773 150.117 62.4773C147.78 62.4773 145.846 61.9702 144.315 60.956C142.784 59.9418 141.814 58.4602 141.407 56.5114L144.748 55.6761C145.066 56.9091 145.667 57.8338 146.552 58.4503C147.447 59.0668 148.615 59.375 150.057 59.375C151.698 59.375 153 59.027 153.965 58.331C154.939 57.625 155.426 56.7798 155.426 55.7955C155.426 55 155.148 54.3338 154.591 53.7969C154.034 53.25 153.179 52.8423 152.026 52.5739L148.208 51.679C146.11 51.1818 144.569 50.4112 143.584 49.3672C142.61 48.3132 142.123 46.9957 142.123 45.4148C142.123 44.1222 142.485 42.9787 143.211 41.9844C143.947 40.9901 144.946 40.2095 146.209 39.6428C147.482 39.076 148.924 38.7926 150.534 38.7926C152.801 38.7926 154.581 39.2898 155.874 40.2841C157.176 41.2784 158.101 42.5909 158.648 44.2216Z" fill="black"/>
<rect x="74.5" y="87.5" width="34" height="31" fill="#FACE79" stroke="#008000"/>
<rect x="39" y="146" width="35" height="32" fill="#FACE79"/>
<rect x="39" y="253" width="35" height="32" fill="#FACE79"/>
<path d="M119.559 96.1327C121.226 90.0208 124.926 97.7194 127.473 96.4074C128.178 96.0445 128.24 95.4211 128.737 94.9236C129.405 94.256 130.796 95.5624 131.485 95.693C134.347 96.2359 137.249 91.2202 140.223 93.165C141.018 93.6851 141.603 95.2459 142.037 94.429C144.172 90.4103 147.057 98.4238 149.236 97.5066C150.321 97.0498 152.46 93.1294 153.193 94.7587C154.126 96.8318 153.869 96.1166 155.281 95.5281C157.002 94.8109 156.291 96.2478 158.689 96.7372C159.832 96.9706 160.751 94.8569 161.107 95.693C162.406 98.7503 161.612 97.0141 163.195 95.748C164.334 94.8366 164.472 98.4307 165.558 95.3633C166.79 91.8855 167.524 95.4346 169.515 96.7921C169.837 97.0119 170.54 96.8606 170.724 96.5448C170.795 96.4231 171.213 94.8049 171.384 95.0885C172.459 96.881 171.875 95.6004 173.472 96.1327" stroke="#008000" stroke-width="3" stroke-linecap="round"/>
<path d="M119 106.418C120.667 100.306 124.367 108.005 126.914 106.693C127.618 106.33 127.68 105.707 128.178 105.209C128.845 104.541 130.237 105.848 130.926 105.978C133.788 106.521 136.689 101.506 139.664 103.45C140.459 103.971 141.043 105.531 141.477 104.714C143.612 100.696 146.498 108.709 148.677 107.792C149.762 107.335 151.9 103.415 152.634 105.044C153.566 107.117 153.31 106.402 154.722 105.814C156.443 105.096 155.731 106.533 158.129 107.023C159.273 107.256 160.192 105.142 160.547 105.978C161.847 109.036 161.053 107.3 162.636 106.033C163.775 105.122 163.913 108.716 164.999 105.649C166.231 102.171 166.965 105.72 168.956 107.078C169.278 107.297 169.981 107.146 170.165 106.83C170.236 106.709 170.654 105.09 170.824 105.374C171.9 107.166 171.316 105.886 172.913 106.418" stroke="#008000" stroke-width="3" stroke-linecap="round"/>
<path d="M119 117.418C120.667 111.306 124.367 119.005 126.914 117.693C127.618 117.33 127.68 116.707 128.178 116.209C128.845 115.541 130.237 116.848 130.926 116.978C133.788 117.521 136.689 112.506 139.664 114.45C140.459 114.971 141.043 116.531 141.477 115.714C143.612 111.696 146.498 119.709 148.677 118.792C149.762 118.335 151.9 114.415 152.634 116.044C153.566 118.117 153.31 117.402 154.722 116.814C156.443 116.096 155.731 117.533 158.129 118.023C159.273 118.256 160.192 116.142 160.547 116.978C161.847 120.036 161.053 118.3 162.636 117.033C163.775 116.122 163.913 119.716 164.999 116.649C166.231 113.171 166.965 116.72 168.956 118.078C169.278 118.297 169.981 118.146 170.165 117.83C170.236 117.709 170.654 116.09 170.824 116.374C171.9 118.166 171.316 116.886 172.913 117.418" stroke="#008000" stroke-width="3" stroke-linecap="round"/>
<path d="M23.6562 97.7251V94.7273H36.565V97.7251H31.9339V110H28.2947V97.7251H23.6562ZM52.0857 102.364C52.0857 104.044 51.7625 105.468 51.1162 106.637C50.4699 107.805 49.5949 108.692 48.4912 109.299C47.3925 109.906 46.1595 110.209 44.7923 110.209C43.4202 110.209 42.1847 109.903 41.086 109.292C39.9873 108.68 39.1148 107.793 38.4685 106.629C37.8271 105.461 37.5065 104.039 37.5065 102.364C37.5065 100.683 37.8271 99.2589 38.4685 98.0906C39.1148 96.9222 39.9873 96.0348 41.086 95.4283C42.1847 94.8217 43.4202 94.5185 44.7923 94.5185C46.1595 94.5185 47.3925 94.8217 48.4912 95.4283C49.5949 96.0348 50.4699 96.9222 51.1162 98.0906C51.7625 99.2589 52.0857 100.683 52.0857 102.364ZM48.3122 102.364C48.3122 101.369 48.1705 100.529 47.8872 99.843C47.6088 99.157 47.2061 98.6374 46.6791 98.2844C46.157 97.9315 45.5281 97.755 44.7923 97.755C44.0615 97.755 43.4326 97.9315 42.9056 98.2844C42.3786 98.6374 41.9735 99.157 41.6901 99.843C41.4117 100.529 41.2725 101.369 41.2725 102.364C41.2725 103.358 41.4117 104.198 41.6901 104.884C41.9735 105.57 42.3786 106.09 42.9056 106.443C43.4326 106.796 44.0615 106.972 44.7923 106.972C45.5281 106.972 46.157 106.796 46.6791 106.443C47.2061 106.09 47.6088 105.57 47.8872 104.884C48.1705 104.198 48.3122 103.358 48.3122 102.364ZM54.2409 110V94.7273H60.5498C61.6933 94.7273 62.6801 94.951 63.5104 95.3984C64.3456 95.8409 64.9894 96.4599 65.4419 97.2553C65.8943 98.0458 66.1205 98.9656 66.1205 100.015C66.1205 101.069 65.8893 101.991 65.4269 102.781C64.9695 103.567 64.3158 104.176 63.4656 104.608C62.6155 105.041 61.6063 105.257 60.4379 105.257H56.5452V102.349H59.7519C60.3087 102.349 60.7735 102.252 61.1464 102.058C61.5242 101.864 61.8101 101.593 62.004 101.245C62.1979 100.892 62.2948 100.482 62.2948 100.015C62.2948 99.5423 62.1979 99.1346 62.004 98.7915C61.8101 98.4435 61.5242 98.1751 61.1464 97.9862C60.7686 97.7972 60.3037 97.7028 59.7519 97.7028H57.9323V110H54.2409Z" fill="#008000"/>
<path d="M84.5593 152.418C86.2261 146.306 89.9263 154.005 92.4731 152.693C93.1776 152.33 93.2395 151.707 93.7371 151.209C94.4046 150.541 95.7965 151.848 96.4849 151.978C99.3473 152.521 102.249 147.506 105.223 149.45C106.018 149.971 106.603 151.531 107.037 150.714C109.172 146.696 112.057 154.709 114.236 153.792C115.321 153.335 117.46 149.415 118.193 151.044C119.126 153.117 118.869 152.402 120.281 151.814C122.002 151.096 121.291 152.533 123.689 153.023C124.832 153.256 125.751 151.142 126.107 151.978C127.406 155.036 126.612 153.3 128.195 152.033C129.334 151.122 129.472 154.716 130.558 151.649C131.79 148.171 132.524 151.72 134.515 153.078C134.837 153.297 135.54 153.146 135.724 152.83C135.795 152.709 136.213 151.09 136.384 151.374C137.459 153.166 136.875 151.886 138.472 152.418" stroke="black" stroke-width="3" stroke-linecap="round"/>
<path d="M84 162.704C85.6669 156.592 89.367 164.29 91.9138 162.978C92.6184 162.615 92.6803 161.992 93.1778 161.494C93.8454 160.827 95.2372 162.133 95.9256 162.264C98.788 162.807 101.689 157.791 104.664 159.736C105.459 160.256 106.043 161.817 106.477 161C108.612 156.981 111.498 164.995 113.677 164.077C114.762 163.621 116.9 159.7 117.634 161.33C118.566 163.403 118.31 162.687 119.722 162.099C121.443 161.382 120.731 162.819 123.129 163.308C124.273 163.541 125.192 161.428 125.547 162.264C126.847 165.321 126.053 163.585 127.636 162.319C128.775 161.407 128.913 165.002 129.999 161.934C131.231 158.456 131.965 162.005 133.956 163.363C134.278 163.583 134.981 163.432 135.165 163.116C135.236 162.994 135.654 161.376 135.824 161.659C136.9 163.452 136.316 162.171 137.913 162.704" stroke="black" stroke-width="3" stroke-linecap="round"/>
<path d="M84 173.704C85.6669 167.592 89.367 175.29 91.9138 173.978C92.6184 173.615 92.6803 172.992 93.1778 172.494C93.8454 171.827 95.2372 173.133 95.9256 173.264C98.788 173.807 101.689 168.791 104.664 170.736C105.459 171.256 106.043 172.817 106.477 172C108.612 167.981 111.498 175.995 113.677 175.077C114.762 174.621 116.9 170.7 117.634 172.33C118.566 174.403 118.31 173.687 119.722 173.099C121.443 172.382 120.731 173.819 123.129 174.308C124.273 174.541 125.192 172.428 125.547 173.264C126.847 176.321 126.053 174.585 127.636 173.319C128.775 172.407 128.913 176.002 129.999 172.934C131.231 169.456 131.965 173.005 133.956 174.363C134.278 174.583 134.981 174.432 135.165 174.116C135.236 173.994 135.654 172.376 135.824 172.659C136.9 174.452 136.316 173.171 137.913 173.704" stroke="black" stroke-width="3" stroke-linecap="round"/>
<rect x="39" y="201" width="35" height="32" fill="#FACE79"/>
<path d="M84.5593 207.418C86.2261 201.306 89.9263 209.005 92.4731 207.693C93.1776 207.33 93.2395 206.707 93.7371 206.209C94.4046 205.541 95.7965 206.848 96.4849 206.978C99.3473 207.521 102.249 202.506 105.223 204.45C106.018 204.971 106.603 206.531 107.037 205.714C109.172 201.696 112.057 209.709 114.236 208.792C115.321 208.335 117.46 204.415 118.193 206.044C119.126 208.117 118.869 207.402 120.281 206.814C122.002 206.096 121.291 207.533 123.689 208.023C124.832 208.256 125.751 206.142 126.107 206.978C127.406 210.036 126.612 208.3 128.195 207.033C129.334 206.122 129.472 209.716 130.558 206.649C131.79 203.171 132.524 206.72 134.515 208.078C134.837 208.297 135.54 208.146 135.724 207.83C135.795 207.709 136.213 206.09 136.384 206.374C137.459 208.166 136.875 206.886 138.472 207.418" stroke="black" stroke-width="3" stroke-linecap="round"/>
<path d="M84 217.704C85.6669 211.592 89.367 219.29 91.9138 217.978C92.6184 217.615 92.6803 216.992 93.1778 216.495C93.8454 215.827 95.2372 217.133 95.9256 217.264C98.788 217.807 101.689 212.791 104.664 214.736C105.459 215.256 106.043 216.817 106.477 216C108.612 211.981 111.498 219.995 113.677 219.077C114.762 218.621 116.9 214.7 117.634 216.33C118.566 218.403 118.31 217.687 119.722 217.099C121.443 216.382 120.731 217.819 123.129 218.308C124.273 218.541 125.192 216.428 125.547 217.264C126.847 220.321 126.053 218.585 127.636 217.319C128.775 216.407 128.913 220.002 129.999 216.934C131.231 213.456 131.965 217.005 133.956 218.363C134.278 218.583 134.981 218.432 135.165 218.116C135.236 217.994 135.654 216.376 135.824 216.659C136.9 218.452 136.316 217.171 137.913 217.704" stroke="black" stroke-width="3" stroke-linecap="round"/>
<path d="M84 228.704C85.6669 222.592 89.367 230.29 91.9138 228.978C92.6184 228.615 92.6803 227.992 93.1778 227.495C93.8454 226.827 95.2372 228.133 95.9256 228.264C98.788 228.807 101.689 223.791 104.664 225.736C105.459 226.256 106.043 227.817 106.477 227C108.612 222.981 111.498 230.995 113.677 230.077C114.762 229.621 116.9 225.7 117.634 227.33C118.566 229.403 118.31 228.687 119.722 228.099C121.443 227.382 120.731 228.819 123.129 229.308C124.273 229.541 125.192 227.428 125.547 228.264C126.847 231.321 126.053 229.585 127.636 228.319C128.775 227.407 128.913 231.002 129.999 227.934C131.231 224.456 131.965 228.005 133.956 229.363C134.278 229.583 134.981 229.432 135.165 229.116C135.236 228.994 135.654 227.376 135.824 227.659C136.9 229.452 136.316 228.171 137.913 228.704" stroke="black" stroke-width="3" stroke-linecap="round"/>
<path d="M84 259.418C85.6669 253.306 89.367 261.005 91.9138 259.693C92.6184 259.33 92.6803 258.707 93.1778 258.209C93.8454 257.541 95.2372 258.848 95.9256 258.978C98.788 259.521 101.689 254.506 104.664 256.45C105.459 256.971 106.043 258.531 106.477 257.714C108.612 253.696 111.498 261.709 113.677 260.792C114.762 260.335 116.9 256.415 117.634 258.044C118.566 260.117 118.31 259.402 119.722 258.814C121.443 258.096 120.731 259.533 123.129 260.023C124.273 260.256 125.192 258.142 125.547 258.978C126.847 262.036 126.053 260.3 127.636 259.033C128.775 258.122 128.913 261.716 129.999 258.649C131.231 255.171 131.965 258.72 133.956 260.078C134.278 260.297 134.981 260.146 135.165 259.83C135.236 259.709 135.654 258.09 135.824 258.374C136.9 260.166 136.316 258.886 137.913 259.418" stroke="black" stroke-width="3" stroke-linecap="round"/>
<path d="M84 270.418C85.6669 264.306 89.367 272.005 91.9138 270.693C92.6184 270.33 92.6803 269.707 93.1778 269.209C93.8454 268.541 95.2372 269.848 95.9256 269.978C98.788 270.521 101.689 265.506 104.664 267.45C105.459 267.971 106.043 269.531 106.477 268.714C108.612 264.696 111.498 272.709 113.677 271.792C114.762 271.335 116.9 267.415 117.634 269.044C118.566 271.117 118.31 270.402 119.722 269.814C121.443 269.096 120.731 270.533 123.129 271.023C124.273 271.256 125.192 269.142 125.547 269.978C126.847 273.036 126.053 271.3 127.636 270.033C128.775 269.122 128.913 272.716 129.999 269.649C131.231 266.171 131.965 269.72 133.956 271.078C134.278 271.297 134.981 271.146 135.165 270.83C135.236 270.709 135.654 269.09 135.824 269.374C136.9 271.166 136.316 269.886 137.913 270.418" stroke="black" stroke-width="3" stroke-linecap="round"/>
<path d="M84 280.418C85.6669 274.306 89.367 282.005 91.9138 280.693C92.6184 280.33 92.6803 279.707 93.1778 279.209C93.8454 278.541 95.2372 279.848 95.9256 279.978C98.788 280.521 101.689 275.506 104.664 277.45C105.459 277.971 106.043 279.531 106.477 278.714C108.612 274.696 111.498 282.709 113.677 281.792C114.762 281.335 116.9 277.415 117.634 279.044C118.566 281.117 118.31 280.402 119.722 279.814C121.443 279.096 120.731 280.533 123.129 281.023C124.273 281.256 125.192 279.142 125.547 279.978C126.847 283.036 126.053 281.3 127.636 280.033C128.775 279.122 128.913 282.716 129.999 279.649C131.231 276.171 131.965 279.72 133.956 281.078C134.278 281.297 134.981 281.146 135.165 280.83C135.236 280.709 135.654 279.09 135.824 279.374C136.9 281.166 136.316 279.886 137.913 280.418" stroke="black" stroke-width="3" stroke-linecap="round"/>
<rect x="0.5" y="0.5" width="196" height="311" stroke="black"/>
<path d="M226.121 92.8787C224.95 91.7071 223.05 91.7071 221.879 92.8787L202.787 111.971C201.615 113.142 201.615 115.042 202.787 116.213C203.958 117.385 205.858 117.385 207.029 116.213L224 99.2426L240.971 116.213C242.142 117.385 244.042 117.385 245.213 116.213C246.385 115.042 246.385 113.142 245.213 111.971L226.121 92.8787ZM227 154L227 95L221 95L221 154L227 154Z" fill="#008000"/>
</svg>
